<?xml version="1.0" encoding="UTF-8" standalone="no"?>
<!DOCTYPE svg PUBLIC "-//W3C//DTD SVG 1.1//EN"
 "http://www.w3.org/Graphics/SVG/1.1/DTD/svg11.dtd">
<!-- Generated by graphviz version 2.43.0 (0)
 -->
<!-- Title: %3 Pages: 1 -->
<svg width="583pt" height="165pt"
 viewBox="0.00 0.00 583.00 164.74" xmlns="http://www.w3.org/2000/svg" xmlns:xlink="http://www.w3.org/1999/xlink">
<g id="graph0" class="graph" transform="scale(1 1) rotate(0) translate(36 128.74)">
<title>%3</title>
<polygon fill="dimgray" stroke="transparent" points="-36,36 -36,-128.74 547,-128.74 547,36 -36,36"/>
<text text-anchor="middle" x="255.5" y="-77.54" font-family="Helvetica,sans-Serif" font-size="14.00">Sweep&#39;s Plan &amp; Progress</text>
<!-- start -->
<g id="node1" class="node">
<title>start</title>
</g>
<!-- ec3f004c&#45;25fa&#45;4137&#45;8b8b&#45;7eaac46bb9f9 -->
<g id="node3" class="node">
<title>ec3f004c&#45;25fa&#45;4137&#45;8b8b&#45;7eaac46bb9f9</title>
<ellipse fill="yellow" stroke="black" cx="127.5" cy="-26.87" rx="74.91" ry="26.74"/>
<text text-anchor="middle" x="127.5" y="-30.67" font-family="Helvetica,sans-Serif" font-size="14.00">⋯ Extract</text>
<text text-anchor="middle" x="127.5" y="-15.67" font-family="Helvetica,sans-Serif" font-size="14.00">src/model.py</text>
</g>
<!-- start&#45;&gt;ec3f004c&#45;25fa&#45;4137&#45;8b8b&#45;7eaac46bb9f9 -->
<g id="edge2" class="edge">
<title>start&#45;&gt;ec3f004c&#45;25fa&#45;4137&#45;8b8b&#45;7eaac46bb9f9</title>
<path fill="none" stroke="black" d="M1.31,-26.87C5.12,-26.87 21.93,-26.87 42.09,-26.87"/>
<polygon fill="black" stroke="black" points="42.21,-30.37 52.21,-26.87 42.21,-23.37 42.21,-30.37"/>
<text text-anchor="middle" x="26.77" y="-33.67" font-family="Helvetica,sans-Serif" font-size="14.00">Start</text>
</g>
<!-- end -->
<g id="node2" class="node">
<title>end</title>
</g>
<!-- e6fbbb9d&#45;8a71&#45;4bfa&#45;b72f&#45;2877ea260368 -->
<g id="node4" class="node">
<title>e6fbbb9d&#45;8a71&#45;4bfa&#45;b72f&#45;2877ea260368</title>
<ellipse fill="white" stroke="black" cx="345.5" cy="-26.87" rx="107.46" ry="26.74"/>
<text text-anchor="middle" x="345.5" y="-30.67" font-family="Helvetica,sans-Serif" font-size="14.00">▶ Create</text>
<text text-anchor="middle" x="345.5" y="-15.67" font-family="Helvetica,sans-Serif" font-size="14.00">tests/test_model.py</text>
</g>
<!-- ec3f004c&#45;25fa&#45;4137&#45;8b8b&#45;7eaac46bb9f9&#45;&gt;e6fbbb9d&#45;8a71&#45;4bfa&#45;b72f&#45;2877ea260368 -->
<g id="edge1" class="edge">
<title>ec3f004c&#45;25fa&#45;4137&#45;8b8b&#45;7eaac46bb9f9&#45;&gt;e6fbbb9d&#45;8a71&#45;4bfa&#45;b72f&#45;2877ea260368</title>
<path fill="none" stroke="black" d="M202.86,-26.87C211.18,-26.87 219.5,-26.87 227.82,-26.87"/>
<polygon fill="black" stroke="black" points="227.97,-30.37 237.97,-26.87 227.97,-23.37 227.97,-30.37"/>
</g>
<!-- e6fbbb9d&#45;8a71&#45;4bfa&#45;b72f&#45;2877ea260368&#45;&gt;end -->
<g id="edge3" class="edge">
<title>e6fbbb9d&#45;8a71&#45;4bfa&#45;b72f&#45;2877ea260368&#45;&gt;end</title>
<path fill="none" stroke="black" d="M453.25,-26.87C472.32,-26.87 489.39,-26.87 499.83,-26.87"/>
<polygon fill="black" stroke="black" points="499.83,-30.37 509.83,-26.87 499.83,-23.37 499.83,-30.37"/>
<text text-anchor="middle" x="481.49" y="-33.67" font-family="Helvetica,sans-Serif" font-size="14.00">Finish</text>
</g>
</g>
</svg>
